<?xml version="1.0" encoding="utf-8"?>
<!-- Generator: Adobe Illustrator 25.2.3, SVG Export Plug-In . SVG Version: 6.00 Build 0)  -->
<svg version="1.1" id="Layer_1" xmlns="http://www.w3.org/2000/svg" xmlns:xlink="http://www.w3.org/1999/xlink" x="0px" y="0px"
	 viewBox="0 0 300 200" style="enable-background:new 0 0 300 200;" xml:space="preserve">
<path d="M150.93,6.42l82.92-0.61c16.27-0.12,28.75,4.03,37.44,12.46c8.68,8.43,13.06,19.06,13.13,31.88
	c0.06,10.7-2.91,19.81-8.89,27.33c-5.98,7.52-15.02,13.49-27.12,17.91c15,3.63,26.27,9.44,33.81,17.43
	c7.53,7.99,11.33,18.1,11.4,30.35c0.05,9.36-2.04,17.67-6.27,24.93c-4.23,7.26-11.3,13.44-21.2,18.54
	c-9.9,5.09-21.17,7.69-33.78,7.78l-80.44,0.6l-0.05-9.56l13.12-0.1c3.94-0.03,6.82-0.81,8.65-2.36c1.82-1.54,2.72-3.29,2.71-5.25
	l-0.79-151.1c-0.02-3.57-0.93-6.26-2.73-8.08c-1.8-1.81-4.42-2.71-7.86-2.68l-13.98,0.1L150.93,6.42z M198.86,90.42l29.28-0.22
	c8.99-0.07,16.14-3.26,21.44-9.58c5.3-6.32,7.91-16.63,7.84-30.94c-0.05-8.85-1.35-15.74-3.93-20.68
	c-2.57-4.94-6.28-8.53-11.14-10.77c-4.86-2.24-13.25-3.31-25.17-3.22c-8.44,0.06-13.66,0.83-15.67,2.29
	c-2.02,1.46-3.01,4.01-2.99,7.65L198.86,90.42z M198.91,99.74l0.37,70.8c0.02,3.31,0.85,5.79,2.5,7.43c1.65,1.65,4.6,2.45,8.85,2.42
	l18.72-0.14c12.41-0.09,21.56-3.41,27.45-9.95c5.89-6.54,8.8-16.69,8.73-30.44c-0.07-12.59-3.19-22.48-9.36-29.68
	c-6.17-7.2-14.66-10.76-25.47-10.68L198.91,99.74z"/>
<path d="M176.48,39.33c-0.16,0.9-0.35,1.81-0.57,2.73c-0.09,0.37-0.18,0.73-0.27,1.1l-26.37,105.1L117.24,26.79
	c-0.42-1.5-0.63-3.12-0.63-4.87c0-2.25,0.87-3.94,2.61-5.06c1.74-1.13,5.54-1.69,11.39-1.69h6.69V5.79H72.77v9.37h9.39
	c5.08,0,8.47,1.04,10.17,3.12c1.7,2.08,4.17,9.27,7.39,21.58L72.1,148.26L40.62,30.91l-0.63-2.37c-1.05-3.25-1.57-5.62-1.57-7.12
	c0-2.17,0.75-3.75,2.24-4.75c1.5-1,4.95-1.5,10.37-1.5h3.65V5.79H3.03v9.37c4.81,0,8.32,1.02,10.52,3.06
	c2.2,2.04,4.17,6.27,5.91,12.68L63.01,195h7.83l33.94-135.83L140.35,195h7.44l38.11-151.84c0.09-0.37,0.18-0.74,0.27-1.1
	c0.1-0.41,0.21-0.82,0.31-1.22L176.48,39.33z"/>
<rect x="146.61" y="185.44" width="5.31" height="9.57"/>
</svg>
